<svg xmlns="http://www.w3.org/2000/svg" xmlns:xlink="http://www.w3.org/1999/xlink" width="124.516" height="144.374" viewBox="0 0 124.516 144.374">
  <defs>
    <clipPath id="clip-path">
      <path id="Polygon_" data-name="Polygon " d="M521,2163.185l-62.258-36.093V2054.9L521,2018.811l62.258,36.093v72.187Z" fill="#3ab6b2"/>
    </clipPath>
  </defs>
  <g id="Polygon_2" data-name="Polygon " transform="translate(-458.742 -2018.811)">
    <path id="Polygon_3" data-name="Polygon " d="M521,2163.185l-62.258-36.093V2054.9L521,2018.811l62.258,36.093v72.187Z" fill="#3ab6b2"/>
    <g id="Clip" clip-path="url(#clip-path)">
      <g id="Polygon_Hover" data-name="Polygon Hover" fill="rgba(0,178,202,0)" stroke-linejoin="round">
        <path d="M 521.4998168945312 2155.83935546875 L 465.9924011230469 2123.423828125 L 465.9924011230469 2058.572509765625 L 521.4998168945312 2026.15673828125 L 577.007080078125 2058.572509765625 L 577.007080078125 2123.423828125 L 521.4998168945312 2155.83935546875 Z" stroke="none"/>
        <path d="M 521.4998168945312 2154.68115234375 L 576.007080078125 2122.849609375 L 576.007080078125 2059.146728515625 L 521.4998168945312 2027.314697265625 L 466.9924011230469 2059.146728515625 L 466.9924011230469 2122.849609375 L 521.4998168945312 2154.68115234375 M 521.4998168945312 2156.997314453125 L 464.9924011230469 2123.997802734375 L 464.9924011230469 2057.99853515625 L 521.4998168945312 2024.998657226562 L 578.007080078125 2057.99853515625 L 578.007080078125 2123.997802734375 L 521.4998168945312 2156.997314453125 Z" stroke="none" fill="#fff"/>
      </g>
    </g>
  </g>
</svg>
